<svg width="102" height="103" viewBox="0 0 102 103" fill="none" xmlns="http://www.w3.org/2000/svg">
<path d="M88.2954 70.5946C72.6651 76.8108 65.2427 88.0496 63.4854 92.8919C67.8271 87.4865 83.3334 81.4054 87.365 78.7027C90.4663 76 92.0169 72.9595 91.7068 69.9189C86.1245 76 87.0549 74.9865 80.2322 78.7027C86.7448 72.9595 84.884 74.9865 88.2954 70.5946Z" fill="#5C624A" stroke="black"/>
<path d="M64.7261 64.1757C64.6363 68.3486 64.7958 70.7195 65.3464 74.9865C70.6185 69.5811 80.8527 61.8108 83.9539 59.4459C97.0549 48.251 98.2415 44.926 99.4602 41.2027C102.313 31.4304 98.9695 26.3902 97.2892 20.5946C96.9938 29.2134 96.0527 31.1131 94.4982 33.7703C98.5298 12.4865 88.9159 4.71622 83.9539 1C85.5046 3.36486 88.2957 13.1622 88.9159 22.6216C88.2667 32.8391 87.4336 34.1151 84.2639 41.8784C81.7829 47.2838 70.3084 59.1081 64.7261 64.1757Z" fill="#5C624A"/>
<path d="M65.9665 76.6757V83.4324C71.1172 78.4414 71.8723 78.3504 81.4728 72.1462C88.2681 68.3371 93.5634 63.5784 96.0487 61.3354C98.5297 59.6462 100.39 53.7027 100.701 51.6757C101.464 48.4272 100.546 44.4153 100.39 42.5541C98.5297 47.2838 97.2892 48.2973 93.8778 53.7027C88.9158 59.1081 82.093 63.8378 77.131 66.8784C73.1614 68.7703 68.034 74.1982 65.9665 76.6757Z" fill="#5C624A"/>
<path d="M64.7261 64.1757C64.6363 68.3486 64.7958 70.7195 65.3464 74.9865C70.6185 69.5811 80.8527 61.8108 83.9539 59.4459C97.0549 48.251 98.2415 44.926 99.4602 41.2027C102.313 31.4304 98.9695 26.3902 97.2892 20.5946C96.9938 29.2134 96.0527 31.1131 94.4982 33.7703C98.5298 12.4865 88.9159 4.71622 83.9539 1C85.5046 3.36486 88.2957 13.1622 88.9159 22.6216C88.2667 32.8391 87.4336 34.1151 84.2639 41.8784C81.7829 47.2838 70.3084 59.1081 64.7261 64.1757Z" stroke="black"/>
<path d="M65.9665 76.6757V83.4324C71.1172 78.4414 71.8723 78.3504 81.4728 72.1462C88.2681 68.3371 93.5634 63.5784 96.0487 61.3354C98.5297 59.6462 100.39 53.7027 100.701 51.6757C101.464 48.4272 100.546 44.4153 100.39 42.5541C98.5297 47.2838 97.2892 48.2973 93.8778 53.7027C88.9158 59.1081 82.093 63.8378 77.131 66.8784C73.1614 68.7703 68.034 74.1982 65.9665 76.6757Z" stroke="black"/>
<path d="M32.1626 88.1622C35.636 90.0541 38.3651 92.5541 39.2955 93.5676C35.2639 85.7973 26.8905 79.7163 24.0993 77.6892L24.0993 77.6892C21.3082 75.6622 19.7575 74.6486 13.2449 70.9324C15.1057 74.6486 16.3462 74.3108 20.6879 78.7027C12.0044 73.973 12.0044 72.6216 9.21328 69.5811C9.21328 70.9324 8.90315 76 13.555 79.3784C18.2069 82.7568 26.5803 85.4595 32.1626 88.1622Z" fill="#5C624A" stroke="black"/>
<path d="M68.7341 47.5201C71.2285 46.1671 73.4212 45.833 77.7585 46.1705L77.9968 46.189L77.8171 46.3453C77.419 46.6922 76.8075 47.0355 76.0769 47.4097C75.3413 47.7865 74.4836 48.1958 73.573 48.6812C71.7549 49.6505 69.7518 50.9094 68.2136 52.7525C66.6685 54.604 65.6659 56.2866 65.0496 57.6295C64.4319 58.9753 64.2059 59.9739 64.2058 60.4595V60.4703L64.2029 60.481C63.8894 61.847 63.5857 62.1638 63.5857 64.1754V72.9595C63.8956 75.441 64.128 79.0697 64.1667 82.3326C64.1861 83.9669 64.1575 85.5123 64.0652 86.776C64.019 87.4074 63.9567 87.9706 63.8767 88.44C63.7969 88.9078 63.6977 89.2899 63.5759 89.5553C62.9631 90.8906 62.4885 92.5168 61.3201 94.2564C60.1469 96.003 58.2726 97.8713 54.8494 99.7359L54.6882 99.8248L54.7019 99.6402C54.8566 97.6744 54.9348 94.3348 54.6638 90.7115C54.3927 87.0867 53.7728 83.1846 52.5378 80.0904C50.0645 73.8939 45.9426 69.8774 44.2 68.649L43.9421 68.4674H44.2576C44.9397 68.4673 46.0609 68.0017 47.1394 66.5484C48.2085 65.1077 49.2293 62.7014 49.7283 58.8453C46.9985 58.1845 45.6183 57.8505 44.8464 57.5982C44.4557 57.4705 44.2134 57.3612 44.0281 57.2379C43.8422 57.1141 43.7184 56.9781 43.5642 56.8101C43.2622 56.4812 42.7083 55.9633 42.2791 55.4107C42.0631 55.1327 41.8729 54.8385 41.7566 54.5465C41.6405 54.2546 41.5951 53.9558 41.6814 53.6734L41.7117 53.5728L41.8103 53.608C43.652 54.2767 46.1164 54.2779 46.739 54.2779C47.1061 54.2778 47.5017 54.1461 47.7537 54.0367C47.2996 53.8034 46.71 53.4564 46.2341 53.0709C45.9632 52.8513 45.7235 52.6152 45.5671 52.3785C45.4118 52.1431 45.3275 51.89 45.4021 51.6461L45.4246 51.5748H45.4978C46.2999 51.5748 47.7384 51.9125 49.7419 51.4928C51.7355 51.0751 54.2765 49.9038 57.2107 46.8756L57.2341 46.8521L57.2673 46.8463C59.4332 46.5092 60.8381 46.255 62.0476 46.2125C63.2626 46.1698 64.2826 46.3403 65.6853 46.8492C66.1463 46.9336 66.3901 47.0198 66.5398 47.107C66.6165 47.1518 66.6671 47.1963 66.7078 47.2369C66.7514 47.2804 66.7717 47.305 66.8054 47.3326C66.8614 47.3783 66.9555 47.4284 67.239 47.4644C67.5202 47.5002 67.9736 47.5197 68.7341 47.5201ZM77.4871 46.3512C73.3262 46.0473 71.2137 46.3969 68.8054 47.7086L68.783 47.7213H68.7576C67.9818 47.7213 67.5111 47.7005 67.2136 47.6627C66.9163 47.6249 66.7775 47.5688 66.6785 47.4879C66.6348 47.4522 66.5961 47.4074 66.5671 47.3785C66.5353 47.3467 66.4978 47.3141 66.4392 47.2799C66.3187 47.2096 66.0996 47.1273 65.6384 47.0435L65.6306 47.0426L65.6218 47.0396C64.2365 46.5366 63.2412 46.37 62.0544 46.4117C60.8665 46.4535 59.4878 46.7026 57.3308 47.0387C54.3826 50.0736 51.8156 51.2632 49.783 51.689C47.8253 52.0991 46.352 51.7993 45.5789 51.7779C45.5613 51.9222 45.614 52.0862 45.7341 52.2681C45.8743 52.4804 46.0963 52.7018 46.3601 52.9156C46.8871 53.3426 47.5624 53.7267 48.0232 53.9498L48.198 54.0347L48.0271 54.1275C47.8134 54.2439 47.2588 54.478 46.739 54.4781C46.1326 54.4781 43.715 54.4769 41.8484 53.8316C41.8146 54.0291 41.8513 54.2451 41.9421 54.4732C42.0487 54.7405 42.227 55.0169 42.4373 55.2877C42.8607 55.8328 43.3924 56.3287 43.7107 56.6754C43.8664 56.845 43.9758 56.9625 44.1384 57.0709C44.3019 57.1797 44.5248 57.2823 44.9089 57.4078C45.6794 57.6596 47.0695 57.9962 49.863 58.6724L49.95 58.6939L49.9392 58.7828C49.4416 62.7123 48.4034 65.18 47.2996 66.6676C46.3212 67.9857 45.2863 68.5371 44.531 68.6451C46.4057 70.0536 50.3323 74.0231 52.7244 80.0162C53.9704 83.1381 54.5914 87.064 54.863 90.6969C55.1264 94.2186 55.0595 97.4735 54.9138 99.4693C58.2104 97.6475 60.0197 95.8339 61.1541 94.1451C62.3111 92.4224 62.7668 90.8383 63.3943 89.4713C63.505 89.2299 63.6006 88.8684 63.6794 88.4058C63.758 87.9449 63.8191 87.3888 63.865 86.7613C63.9568 85.5054 63.9859 83.9666 63.9666 82.3355C63.9278 79.0728 63.696 75.4442 63.3865 72.9713L63.3845 72.9595H63.3855V64.1754C63.3855 62.1383 63.6996 61.7748 64.0056 60.4459C64.0097 59.914 64.2506 58.8904 64.8679 57.5455C65.4921 56.1858 66.5045 54.4888 68.0603 52.6246C69.6232 50.7519 71.6527 49.4777 73.4783 48.5045C74.3894 48.0187 75.2574 47.6038 75.9851 47.231C76.6004 46.9158 77.1145 46.6291 77.4871 46.3512ZM61.9041 48.8785C61.9838 48.8811 62.042 48.885 62.0837 48.8922C62.1229 48.8989 62.1687 48.9117 62.2019 48.9478C62.2186 48.966 62.2272 48.9852 62.2322 48.9986C62.2345 49.0047 62.2369 49.0104 62.238 49.0142C62.2394 49.0187 62.2401 49.0213 62.241 49.024C62.2431 49.0304 62.2448 49.0376 62.2546 49.0484C62.2808 49.077 62.3585 49.1338 62.5886 49.2174L62.7292 49.2681L62.6287 49.3785C62.4753 49.5456 62.3902 49.6387 62.2644 49.7301C62.1416 49.8192 61.9784 49.9077 61.6716 50.0748C61.4074 50.2185 61.031 50.305 60.6775 50.356C60.321 50.4074 59.9744 50.4244 59.7634 50.4244H59.6638V50.3248C59.6638 50.2138 59.7133 50.0894 59.7839 49.9683C59.8563 49.8445 59.9584 49.7118 60.0779 49.5816C60.3168 49.3214 60.635 49.0602 60.9558 48.8853L60.9783 48.8736H61.0037C61.4674 48.8736 61.742 48.8732 61.9041 48.8785ZM61.032 49.0728C60.7395 49.2358 60.4453 49.4757 60.2244 49.7164C60.1117 49.8392 60.02 49.9608 59.9568 50.0689C59.9238 50.1254 59.8996 50.176 59.8845 50.2193C60.0866 50.214 60.3643 50.1987 60.6482 50.1578C60.9967 50.1075 61.3441 50.025 61.5759 49.899C61.8886 49.7287 62.0375 49.6475 62.1472 49.5679C62.2283 49.509 62.2875 49.4488 62.3806 49.3492C62.2369 49.2879 62.1555 49.2347 62.1082 49.1832C62.0757 49.1478 62.0604 49.1155 62.0515 49.0894H62.0496C62.0223 49.0848 61.9759 49.0813 61.8972 49.0787C61.7426 49.0736 61.4806 49.0728 61.032 49.0728Z" fill="#FF1414"/>
<path d="M68.7341 47.5201L68.7339 48.0201L68.8609 48.0202L68.9725 47.9596L68.7341 47.5201ZM77.7585 46.1705L77.7974 45.672L77.7973 45.672L77.7585 46.1705ZM77.9968 46.189L78.3249 46.5663L79.2255 45.7832L78.0356 45.6906L77.9968 46.189ZM77.8171 46.3453L77.489 45.968L77.4886 45.9683L77.8171 46.3453ZM76.0769 47.4097L76.3049 47.8548V47.8548L76.0769 47.4097ZM73.573 48.6812L73.3378 48.24L73.3378 48.24L73.573 48.6812ZM68.2136 52.7525L67.8297 52.4321L67.8297 52.4322L68.2136 52.7525ZM65.0496 57.6295L64.5951 57.4209L64.5951 57.4209L65.0496 57.6295ZM64.2058 60.4595L63.7058 60.4594V60.4595H64.2058ZM64.2058 60.4703L64.6882 60.6018L64.7058 60.5373V60.4703H64.2058ZM64.2029 60.481L63.7205 60.3495L63.7178 60.3593L63.7155 60.3692L64.2029 60.481ZM63.5857 64.1754L63.0857 64.1754V64.1754H63.5857ZM63.5857 72.9595H63.0857V72.9906L63.0895 73.0215L63.5857 72.9595ZM64.1667 82.3326L64.6667 82.3267V82.3267L64.1667 82.3326ZM64.0652 86.776L64.5639 86.8124V86.8124L64.0652 86.776ZM63.8767 88.44L64.3696 88.5241L64.3696 88.524L63.8767 88.44ZM63.5759 89.5553L64.0304 89.7638L64.0304 89.7637L63.5759 89.5553ZM61.3201 94.2564L61.7351 94.5352L61.7351 94.5352L61.3201 94.2564ZM54.8494 99.7359L54.6102 99.2968L54.6079 99.2981L54.8494 99.7359ZM54.6882 99.8248L54.1896 99.7878L54.1214 100.708L54.9297 100.263L54.6882 99.8248ZM54.7019 99.6402L54.2034 99.601L54.2033 99.6033L54.7019 99.6402ZM54.6638 90.7115L55.1624 90.6742V90.6742L54.6638 90.7115ZM52.5378 80.0904L53.0022 79.9051L53.0022 79.9051L52.5378 80.0904ZM44.2 68.649L44.488 68.2403L44.4879 68.2403L44.2 68.649ZM43.9421 68.4674V67.9674H42.3643L43.6542 68.8761L43.9421 68.4674ZM44.2576 68.4674V68.9674H44.2576L44.2576 68.4674ZM47.1394 66.5484L47.5409 66.8464L47.5409 66.8464L47.1394 66.5484ZM49.7283 58.8453L50.2241 58.9095L50.2817 58.4648L49.8459 58.3593L49.7283 58.8453ZM44.8464 57.5982L44.6911 58.0735L44.6911 58.0735L44.8464 57.5982ZM44.0281 57.2379L43.751 57.654L43.7511 57.6541L44.0281 57.2379ZM43.5642 56.8101L43.9325 56.472L43.9325 56.472L43.5642 56.8101ZM42.2791 55.4107L41.8842 55.7174L41.8842 55.7174L42.2791 55.4107ZM41.7566 54.5465L41.292 54.7313L41.2921 54.7315L41.7566 54.5465ZM41.6814 53.6734L42.1596 53.8196L42.1602 53.8175L41.6814 53.6734ZM41.7117 53.5728L41.8795 53.1019L41.3844 52.9254L41.2329 53.4287L41.7117 53.5728ZM41.8103 53.608L41.981 53.138L41.9782 53.137L41.8103 53.608ZM46.739 54.2779V54.7779H46.7391L46.739 54.2779ZM47.7537 54.0367L47.9528 54.4953L48.9217 54.0747L47.9822 53.592L47.7537 54.0367ZM46.2341 53.0709L45.9193 53.4593L45.9194 53.4594L46.2341 53.0709ZM45.5671 52.3785L45.1499 52.654L45.1499 52.6541L45.5671 52.3785ZM45.4021 51.6461L44.9252 51.4958L44.9239 51.4999L45.4021 51.6461ZM45.4246 51.5748V51.0748H45.0579L44.9477 51.4245L45.4246 51.5748ZM45.4978 51.5748L45.4978 51.0748H45.4978V51.5748ZM49.7419 51.4928L49.8445 51.9821L49.8445 51.9821L49.7419 51.4928ZM57.2107 46.8756L56.8571 46.522L56.8516 46.5276L57.2107 46.8756ZM57.2341 46.8521L57.1472 46.3597L56.992 46.3871L56.8806 46.4986L57.2341 46.8521ZM57.2673 46.8463L57.1904 46.3521L57.1804 46.3539L57.2673 46.8463ZM62.0476 46.2125L62.0301 45.7128L62.03 45.7128L62.0476 46.2125ZM65.6853 46.8492L65.5148 47.3192L65.5541 47.3335L65.5953 47.341L65.6853 46.8492ZM66.5398 47.107L66.7918 46.6752L66.7915 46.675L66.5398 47.107ZM66.7078 47.2369L67.0611 46.8831L67.0609 46.8829L66.7078 47.2369ZM66.8054 47.3326L66.4889 47.7196L66.4894 47.72L66.8054 47.3326ZM67.239 47.4644L67.176 47.9604L67.176 47.9604L67.239 47.4644ZM77.4871 46.3512L77.7861 46.7519L78.8605 45.9501L77.5235 45.8525L77.4871 46.3512ZM68.8054 47.7086L68.5662 47.2694L68.5594 47.2733L68.8054 47.7086ZM68.783 47.7213V48.2213H68.9145L69.029 48.1565L68.783 47.7213ZM68.7576 47.7213V48.2213V47.7213ZM67.2136 47.6627L67.1506 48.1587L67.1506 48.1587L67.2136 47.6627ZM66.6785 47.4879L66.3619 47.8749L66.3623 47.8752L66.6785 47.4879ZM66.5671 47.3785L66.9205 47.0248L66.9204 47.0246L66.5671 47.3785ZM66.4392 47.2799L66.6912 46.848L66.691 46.8479L66.4392 47.2799ZM65.6384 47.0435L65.7278 46.5516L65.7142 46.5491L65.7004 46.5474L65.6384 47.0435ZM65.6306 47.0426L65.4725 47.5169L65.5195 47.5326L65.5686 47.5387L65.6306 47.0426ZM65.6218 47.0396L65.4511 47.5098L65.4637 47.514L65.6218 47.0396ZM62.0544 46.4117L62.0369 45.912L62.0369 45.912L62.0544 46.4117ZM57.3308 47.0387L57.2538 46.5446L57.0887 46.5703L56.9722 46.6903L57.3308 47.0387ZM49.783 51.689L49.8855 52.1784L49.8855 52.1784L49.783 51.689ZM45.5789 51.7779L45.5927 51.2781L45.1375 51.2655L45.0825 51.7175L45.5789 51.7779ZM45.7341 52.2681L45.3169 52.5436L45.3169 52.5437L45.7341 52.2681ZM46.3601 52.9156L46.0453 53.304L46.0453 53.3041L46.3601 52.9156ZM48.0232 53.9498L48.2418 53.5001L48.2411 53.4998L48.0232 53.9498ZM48.198 54.0347L48.4365 54.4742L49.2913 54.0102L48.4166 53.585L48.198 54.0347ZM48.0271 54.1275L47.7886 53.6881L47.7879 53.6884L48.0271 54.1275ZM46.739 54.4781V54.9781H46.7391L46.739 54.4781ZM41.8484 53.8316L42.0118 53.3591L41.4551 53.1666L41.3556 53.7472L41.8484 53.8316ZM41.9421 54.4732L41.4776 54.6582L41.4777 54.6583L41.9421 54.4732ZM42.4373 55.2877L42.0424 55.5944L42.0424 55.5944L42.4373 55.2877ZM43.7107 56.6754L44.079 56.3372L44.079 56.3372L43.7107 56.6754ZM44.1384 57.0709L43.8612 57.487L43.8614 57.4871L44.1384 57.0709ZM44.9089 57.4078L44.7536 57.8831L44.7536 57.8831L44.9089 57.4078ZM49.863 58.6724L49.983 58.187L49.9807 58.1865L49.863 58.6724ZM49.95 58.6939L50.4463 58.7539L50.4994 58.3147L50.0699 58.2085L49.95 58.6939ZM49.9392 58.7828L50.4353 58.8456L50.4356 58.8428L49.9392 58.7828ZM47.2996 66.6676L47.7011 66.9655L47.7011 66.9655L47.2996 66.6676ZM44.531 68.6451L44.4602 68.1501L43.2669 68.3208L44.2307 69.0448L44.531 68.6451ZM52.7244 80.0162L53.1887 79.8308L53.1887 79.8308L52.7244 80.0162ZM54.863 90.6969L55.3616 90.6596L55.3616 90.6596L54.863 90.6969ZM54.9138 99.4693L54.4151 99.4329L54.3479 100.353L55.1557 99.9069L54.9138 99.4693ZM61.1541 94.1451L61.5691 94.4239L61.5691 94.4239L61.1541 94.1451ZM63.3943 89.4713L63.8487 89.6798L63.8488 89.6797L63.3943 89.4713ZM63.6794 88.4058L64.1723 88.4899L64.1723 88.4898L63.6794 88.4058ZM63.865 86.7613L64.3637 86.7978V86.7977L63.865 86.7613ZM63.9666 82.3355L64.4665 82.3296V82.3296L63.9666 82.3355ZM63.3865 72.9713L63.8826 72.9092L63.8813 72.8991L63.8797 72.8891L63.3865 72.9713ZM63.3845 72.9595V72.4595H62.7943L62.8913 73.0417L63.3845 72.9595ZM63.3855 72.9595V73.4595H63.8855V72.9595H63.3855ZM63.3855 64.1754L62.8855 64.1754V64.1754H63.3855ZM64.0056 60.4459L64.4929 60.5581L64.5052 60.5046L64.5056 60.4497L64.0056 60.4459ZM64.8679 57.5455L64.4135 57.3369L64.4135 57.3369L64.8679 57.5455ZM68.0603 52.6246L67.6764 52.3042L67.6764 52.3042L68.0603 52.6246ZM73.4783 48.5045L73.2431 48.0632L73.2431 48.0633L73.4783 48.5045ZM75.9851 47.231L76.2131 47.6761L76.2131 47.676L75.9851 47.231ZM61.9041 48.8785L61.9206 48.3788L61.9205 48.3788L61.9041 48.8785ZM62.0837 48.8922L62.1685 48.3994L62.1678 48.3993L62.0837 48.8922ZM62.2019 48.9478L62.5704 48.6099L62.57 48.6094L62.2019 48.9478ZM62.2322 48.9986L62.7007 48.824L62.7005 48.8235L62.2322 48.9986ZM62.238 49.0142L62.716 48.8674L62.7159 48.8671L62.238 49.0142ZM62.241 49.024L61.766 49.1803L61.7661 49.1804L62.241 49.024ZM62.2546 49.0484L61.8856 49.3858L61.8863 49.3865L62.2546 49.0484ZM62.5886 49.2174L62.4179 49.6873L62.4188 49.6876L62.5886 49.2174ZM62.7292 49.2681L63.0988 49.605L63.6028 49.052L62.8991 48.7979L62.7292 49.2681ZM62.6287 49.3785L62.997 49.7166L62.9982 49.7153L62.6287 49.3785ZM62.2644 49.7301L62.558 50.1348L62.5582 50.1346L62.2644 49.7301ZM61.6716 50.0748L61.9105 50.5141L61.9108 50.5139L61.6716 50.0748ZM60.6775 50.356L60.7488 50.8509L60.7489 50.8509L60.6775 50.356ZM59.6638 50.4244H59.1638V50.9244H59.6638V50.4244ZM59.7839 49.9683L59.3522 49.7161L59.3521 49.7163L59.7839 49.9683ZM60.0779 49.5816L59.7095 49.2435L59.7095 49.2436L60.0779 49.5816ZM60.9558 48.8853L60.7245 48.442L60.7165 48.4463L60.9558 48.8853ZM60.9783 48.8736V48.3736H60.8557L60.747 48.4303L60.9783 48.8736ZM61.032 49.0728L61.032 48.5728L60.9021 48.5728L60.7886 48.636L61.032 49.0728ZM60.2244 49.7164L59.856 49.3783L59.856 49.3783L60.2244 49.7164ZM59.9568 50.0689L59.5251 49.8167L59.525 49.8169L59.9568 50.0689ZM59.8845 50.2193L59.4122 50.0551L59.1748 50.7382L59.8977 50.7191L59.8845 50.2193ZM60.6482 50.1578L60.7195 50.6527L60.7195 50.6527L60.6482 50.1578ZM61.5759 49.899L61.8147 50.3383L61.8151 50.3381L61.5759 49.899ZM62.1472 49.5679L62.4409 49.9726L62.4411 49.9725L62.1472 49.5679ZM62.3806 49.3492L62.7459 49.6906L63.2332 49.1694L62.5769 48.8893L62.3806 49.3492ZM62.1082 49.1832L61.7397 49.5212L61.7399 49.5214L62.1082 49.1832ZM62.0515 49.0894L62.525 48.9287L62.4098 48.5894H62.0515V49.0894ZM62.0496 49.0894L61.9664 49.5825L62.0077 49.5894H62.0496V49.0894ZM61.8972 49.0787L61.9137 48.579L61.9137 48.579L61.8972 49.0787ZM68.7341 47.5201L68.9725 47.9596C71.3488 46.6706 73.4322 46.3354 77.7198 46.669L77.7585 46.1705L77.7973 45.672C73.4102 45.3307 71.1081 45.6636 68.4957 47.0806L68.7341 47.5201ZM77.7585 46.1705L77.7197 46.669L77.958 46.6875L77.9968 46.189L78.0356 45.6906L77.7974 45.672L77.7585 46.1705ZM77.9968 46.189L77.6687 45.8117L77.489 45.968L77.8171 46.3453L78.1452 46.7226L78.3249 46.5663L77.9968 46.189ZM77.8171 46.3453L77.4886 45.9683C77.1429 46.2696 76.5843 46.5881 75.849 46.9647L76.0769 47.4097L76.3049 47.8548C77.0307 47.483 77.6951 47.1149 78.1456 46.7222L77.8171 46.3453ZM76.0769 47.4097L75.849 46.9647C75.1332 47.3314 74.2498 47.7538 73.3378 48.24L73.573 48.6812L73.8082 49.1225C74.7174 48.6378 75.5494 48.2417 76.3049 47.8548L76.0769 47.4097ZM73.573 48.6812L73.3378 48.24C71.5011 49.2192 69.4301 50.5146 67.8297 52.4321L68.2136 52.7525L68.5975 53.0729C70.0735 51.3043 72.0087 50.0818 73.8082 49.1224L73.573 48.6812ZM68.2136 52.7525L67.8297 52.4322C66.2576 54.316 65.2308 56.036 64.5951 57.4209L65.0496 57.6295L65.504 57.8381C66.1011 56.5372 67.0794 54.892 68.5975 53.0729L68.2136 52.7525ZM65.0496 57.6295L64.5951 57.4209C63.9658 58.7921 63.706 59.8679 63.7058 60.4594L64.2058 60.4595L64.7058 60.4597C64.7059 60.0798 64.8979 59.1586 65.504 57.838L65.0496 57.6295ZM64.2058 60.4595H63.7058V60.4703H64.2058H64.7058V60.4595H64.2058ZM64.2058 60.4703L63.7234 60.3387L63.7205 60.3495L64.2029 60.481L64.6853 60.6126L64.6882 60.6018L64.2058 60.4703ZM64.2029 60.481L63.7155 60.3692C63.419 61.6615 63.0857 62.0883 63.0857 64.1754L63.5857 64.1754L64.0857 64.1754C64.0857 62.2393 64.3598 62.0326 64.6902 60.5929L64.2029 60.481ZM63.5857 64.1754H63.0857V72.9595H63.5857H64.0857V64.1754H63.5857ZM63.5857 72.9595L63.0895 73.0215C63.3966 75.4809 63.6282 79.0904 63.6668 82.3385L64.1667 82.3326L64.6667 82.3267C64.6278 79.0489 64.3945 75.4011 64.0818 72.8976L63.5857 72.9595ZM64.1667 82.3326L63.6668 82.3385C63.6861 83.9651 63.6574 85.4952 63.5665 86.7395L64.0652 86.776L64.5639 86.8124C64.6576 85.5294 64.6862 83.9686 64.6667 82.3267L64.1667 82.3326ZM64.0652 86.776L63.5665 86.7395C63.5211 87.3614 63.4603 87.9076 63.3838 88.356L63.8767 88.44L64.3696 88.524C64.4532 88.0336 64.517 87.4534 64.5639 86.8124L64.0652 86.776ZM63.8767 88.44L63.3838 88.356C63.3064 88.81 63.2158 89.1411 63.1215 89.3468L63.5759 89.5553L64.0304 89.7637C64.1795 89.4387 64.2875 89.0057 64.3696 88.5241L63.8767 88.44ZM63.5759 89.5553L63.1215 89.3467C62.4726 90.7607 62.0446 92.2809 60.905 93.9776L61.3201 94.2564L61.7351 94.5352C62.9324 92.7526 63.4536 91.0206 64.0304 89.7638L63.5759 89.5553ZM61.3201 94.2564L60.905 93.9776C59.783 95.648 57.9735 97.4649 54.6102 99.2968L54.8494 99.7359L55.0885 100.175C58.5718 98.2777 60.5108 96.358 61.7351 94.5352L61.3201 94.2564ZM54.8494 99.7359L54.6079 99.2981L54.4468 99.387L54.6882 99.8248L54.9297 100.263L55.0908 100.174L54.8494 99.7359ZM54.6882 99.8248L55.1869 99.8617L55.2005 99.6772L54.7019 99.6402L54.2033 99.6033L54.1896 99.7878L54.6882 99.8248ZM54.7019 99.6402L55.2004 99.6794C55.3569 97.689 55.4353 94.3239 55.1624 90.6742L54.6638 90.7115L54.1652 90.7488C54.4342 94.3458 54.3562 97.6597 54.2034 99.601L54.7019 99.6402ZM54.6638 90.7115L55.1624 90.6742C54.8898 87.0293 54.2648 83.0685 53.0022 79.9051L52.5378 80.0904L52.0735 80.2757C53.2807 83.3006 53.8956 87.1441 54.1652 90.7488L54.6638 90.7115ZM52.5378 80.0904L53.0022 79.9051C50.4904 73.6121 46.304 69.5204 44.488 68.2403L44.2 68.649L43.9119 69.0577C45.5812 70.2344 49.6386 74.1756 52.0735 80.2758L52.5378 80.0904ZM44.2 68.649L44.4879 68.2403L44.2301 68.0586L43.9421 68.4674L43.6542 68.8761L43.912 69.0577L44.2 68.649ZM43.9421 68.4674V68.9674H44.2576V68.4674V67.9674H43.9421V68.4674ZM44.2576 68.4674L44.2576 68.9674C45.1472 68.9673 46.4019 68.3812 47.5409 66.8464L47.1394 66.5484L46.7379 66.2504C45.7199 67.6222 44.7321 67.9674 44.2576 67.9674L44.2576 68.4674ZM47.1394 66.5484L47.5409 66.8464C48.6763 65.3164 49.718 62.8204 50.2241 58.9095L49.7283 58.8453L49.2324 58.7811C48.7405 62.5824 47.7407 64.899 46.7379 66.2505L47.1394 66.5484ZM49.7283 58.8453L49.8459 58.3593C47.1026 57.6952 45.7495 57.3673 45.0018 57.123L44.8464 57.5982L44.6911 58.0735C45.487 58.3336 46.8943 58.6737 49.6106 59.3313L49.7283 58.8453ZM44.8464 57.5982L45.0018 57.123C44.629 57.0011 44.4358 56.9086 44.3051 56.8216L44.0281 57.2379L43.7511 57.6541C43.9911 57.8139 44.2823 57.9399 44.6911 58.0735L44.8464 57.5982ZM44.0281 57.2379L44.3052 56.8217C44.1771 56.7364 44.0914 56.645 43.9325 56.472L43.5642 56.8101L43.1959 57.1483C43.3453 57.3111 43.5074 57.4919 43.751 57.654L44.0281 57.2379ZM43.5642 56.8101L43.9325 56.472C43.5896 56.0985 43.0887 55.638 42.6739 55.104L42.2791 55.4107L41.8842 55.7174C42.3279 56.2887 42.9348 56.8639 43.1959 57.1483L43.5642 56.8101ZM42.2791 55.4107L42.6739 55.104C42.4722 54.8443 42.313 54.5922 42.2211 54.3614L41.7566 54.5465L41.2921 54.7315C41.4328 55.0848 41.6541 55.4211 41.8842 55.7174L42.2791 55.4107ZM41.7566 54.5465L42.2212 54.3616C42.1296 54.1315 42.118 53.9554 42.1596 53.8196L41.6814 53.6734L41.2032 53.5272C41.0721 53.9563 41.1513 54.3778 41.292 54.7313L41.7566 54.5465ZM41.6814 53.6734L42.1602 53.8175L42.1905 53.7169L41.7117 53.5728L41.2329 53.4287L41.2026 53.5293L41.6814 53.6734ZM41.7117 53.5728L41.5438 54.0438L41.6424 54.079L41.8103 53.608L41.9782 53.137L41.8795 53.1019L41.7117 53.5728ZM41.8103 53.608L41.6396 54.078C43.5766 54.7813 46.1282 54.7779 46.739 54.7779V54.2779V53.7779C46.1046 53.7779 43.7274 53.7722 41.981 53.138L41.8103 53.608ZM46.739 54.2779L46.7391 54.7779C47.2064 54.7778 47.6758 54.6156 47.9528 54.4953L47.7537 54.0367L47.5545 53.5781C47.3276 53.6766 47.0057 53.7778 46.7389 53.7779L46.739 54.2779ZM47.7537 54.0367L47.9822 53.592C47.5448 53.3673 46.9881 53.0383 46.5489 52.6824L46.2341 53.0709L45.9194 53.4594C46.4318 53.8746 47.0543 54.2395 47.5252 54.4814L47.7537 54.0367ZM46.2341 53.0709L46.549 52.6824C46.2961 52.4775 46.1005 52.2787 45.9844 52.1029L45.5671 52.3785L45.1499 52.6541C45.3465 52.9516 45.6303 53.225 45.9193 53.4593L46.2341 53.0709ZM45.5671 52.3785L45.9844 52.103C45.8642 51.921 45.8692 51.8283 45.8803 51.7922L45.4021 51.6461L44.9239 51.4999C44.7858 51.9517 44.9593 52.3653 45.1499 52.654L45.5671 52.3785ZM45.4021 51.6461L45.879 51.7963L45.9015 51.725L45.4246 51.5748L44.9477 51.4245L44.9252 51.4958L45.4021 51.6461ZM45.4246 51.5748V52.0748H45.4978V51.5748V51.0748H45.4246V51.5748ZM45.4978 51.5748L45.4978 52.0748C46.1645 52.0748 47.7798 52.4147 49.8445 51.9821L49.7419 51.4928L49.6394 51.0034C47.6971 51.4103 46.4354 51.0748 45.4978 51.0748L45.4978 51.5748ZM49.7419 51.4928L49.8445 51.9821C51.9492 51.5411 54.5763 50.3128 57.5698 47.2235L57.2107 46.8756L56.8516 46.5276C53.9766 49.4947 51.5217 50.609 49.6394 51.0034L49.7419 51.4928ZM57.2107 46.8756L57.5642 47.2291L57.5877 47.2057L57.2341 46.8521L56.8806 46.4986L56.8571 46.522L57.2107 46.8756ZM57.2341 46.8521L57.321 47.3445L57.3542 47.3387L57.2673 46.8463L57.1804 46.3539L57.1472 46.3597L57.2341 46.8521ZM57.2673 46.8463L57.3442 47.3403C59.5346 46.9994 60.8946 46.7533 62.0652 46.7122L62.0476 46.2125L62.03 45.7128C60.7815 45.7567 59.3317 46.019 57.1904 46.3522L57.2673 46.8463ZM62.0476 46.2125L62.0652 46.7122C63.2063 46.6721 64.1622 46.8286 65.5148 47.3192L65.6853 46.8492L65.8558 46.3792C64.4029 45.8521 63.319 45.6675 62.0301 45.7128L62.0476 46.2125ZM65.6853 46.8492L65.5953 47.341C66.038 47.422 66.2137 47.4957 66.2881 47.539L66.5398 47.107L66.7915 46.675C66.5664 46.5438 66.2546 46.4451 65.7753 46.3574L65.6853 46.8492ZM66.5398 47.107L66.2878 47.5388C66.3046 47.5487 66.3165 47.5572 66.3254 47.5643C66.3344 47.5715 66.3433 47.5796 66.3547 47.5909L66.7078 47.2369L67.0609 46.8829C66.9988 46.8209 66.9148 46.7469 66.7918 46.6752L66.5398 47.107ZM66.7078 47.2369L66.3545 47.5907C66.3624 47.5987 66.3696 47.606 66.3772 47.6139C66.3837 47.6206 66.3943 47.6316 66.4034 47.6409C66.4245 47.6624 66.4523 47.6897 66.4889 47.7196L66.8054 47.3326L67.1219 46.9455C67.1249 46.9479 67.1256 46.9491 67.1172 46.9406C67.1115 46.9348 67.1068 46.9298 67.0961 46.9188C67.0866 46.9089 67.0749 46.8969 67.0611 46.8831L66.7078 47.2369ZM66.8054 47.3326L66.4894 47.72C66.6522 47.8529 66.8564 47.9198 67.176 47.9604L67.239 47.4644L67.3021 46.9684C67.179 46.9528 67.1215 46.9369 67.0999 46.9294C67.0906 46.9263 67.0917 46.9259 67.099 46.9299C67.1073 46.9345 67.1155 46.9403 67.1215 46.9452L66.8054 47.3326ZM67.239 47.4644L67.176 47.9604C67.4912 48.0005 67.9722 48.0197 68.7339 48.0201L68.7341 47.5201L68.7344 47.0201C67.9749 47.0197 67.5491 46.9998 67.302 46.9684L67.239 47.4644ZM77.4871 46.3512L77.5235 45.8525C73.3095 45.5448 71.0897 45.8951 68.5663 47.2695L68.8054 47.7086L69.0446 48.1477C71.3377 46.8987 73.3429 46.5499 77.4506 46.8498L77.4871 46.3512ZM68.8054 47.7086L68.5594 47.2733L68.5369 47.286L68.783 47.7213L69.029 48.1565L69.0514 48.1439L68.8054 47.7086ZM68.783 47.7213V47.2213H68.7576V47.7213V48.2213H68.783V47.7213ZM68.7576 47.7213V47.2213C67.9839 47.2213 67.5404 47.2002 67.2767 47.1667L67.2136 47.6627L67.1506 48.1587C67.4818 48.2008 67.9796 48.2213 68.7576 48.2213V47.7213ZM67.2136 47.6627L67.2767 47.1667C67.1461 47.1501 67.0738 47.1321 67.0338 47.1184C67.0151 47.112 67.0055 47.1072 67.0015 47.105C66.998 47.1031 66.9963 47.1019 66.9947 47.1006L66.6785 47.4879L66.3623 47.8752C66.569 48.044 66.819 48.1165 67.1506 48.1587L67.2136 47.6627ZM66.6785 47.4879L66.995 47.1008C66.9954 47.1012 66.994 47.1 66.9903 47.0965C66.9867 47.0931 66.982 47.0884 66.9756 47.0819C66.9688 47.0749 66.9624 47.0682 66.953 47.0583C66.945 47.0499 66.933 47.0372 66.9205 47.0248L66.5671 47.3785L66.2138 47.7322C66.2298 47.7483 66.2211 47.7405 66.259 47.7794C66.2828 47.8039 66.3186 47.8395 66.3619 47.8749L66.6785 47.4879ZM66.5671 47.3785L66.9204 47.0246C66.8655 46.9699 66.7947 46.9084 66.6912 46.848L66.4392 47.2799L66.1872 47.7117C66.1962 47.717 66.2006 47.7203 66.2024 47.7217C66.2043 47.7232 66.2073 47.7258 66.2139 47.7324L66.5671 47.3785ZM66.4392 47.2799L66.691 46.8479C66.4948 46.7335 66.2074 46.6387 65.7278 46.5516L65.6384 47.0435L65.5491 47.5355C65.9918 47.6159 66.1425 47.6857 66.1874 47.7118L66.4392 47.2799ZM65.6384 47.0435L65.7004 46.5474L65.6926 46.5464L65.6306 47.0426L65.5686 47.5387L65.5764 47.5397L65.6384 47.0435ZM65.6306 47.0426L65.7887 46.5682L65.7799 46.5653L65.6218 47.0396L65.4637 47.514L65.4725 47.5169L65.6306 47.0426ZM65.6218 47.0396L65.7925 46.5696C64.3574 46.0486 63.298 45.8677 62.0369 45.912L62.0544 46.4117L62.072 46.9114C63.1844 46.8723 64.1155 47.0246 65.4512 47.5096L65.6218 47.0396ZM62.0544 46.4117L62.0369 45.912C60.8099 45.9551 59.3864 46.2124 57.2538 46.5446L57.3308 47.0387L57.4078 47.5327C59.5892 47.1929 60.9231 46.9518 62.072 46.9114L62.0544 46.4117ZM57.3308 47.0387L56.9722 46.6903C54.0832 49.6643 51.6021 50.7971 49.6804 51.1997L49.783 51.689L49.8855 52.1784C52.0291 51.7293 54.6821 50.4829 57.6895 47.387L57.3308 47.0387ZM49.783 51.689L49.6804 51.1997C47.7993 51.5937 46.4571 51.302 45.5927 51.2781L45.5789 51.7779L45.565 52.2777C46.2469 52.2966 47.8514 52.6045 49.8855 52.1784L49.783 51.689ZM45.5789 51.7779L45.0825 51.7175C45.0447 52.028 45.1645 52.3128 45.3169 52.5436L45.7341 52.2681L46.1514 51.9927C46.11 51.9299 46.0902 51.8851 46.0814 51.8574C46.073 51.8311 46.0766 51.8268 46.0752 51.8383L45.5789 51.7779ZM45.7341 52.2681L45.3169 52.5437C45.4972 52.8167 45.7632 53.0754 46.0453 53.304L46.3601 52.9156L46.6749 52.5272C46.4294 52.3281 46.2514 52.1441 46.1514 51.9926L45.7341 52.2681ZM46.3601 52.9156L46.0453 53.3041C46.612 53.7632 47.3236 54.1666 47.8053 54.3998L48.0232 53.9498L48.2411 53.4998C47.8012 53.2868 47.1622 52.9219 46.6749 52.5271L46.3601 52.9156ZM48.0232 53.9498L47.8046 54.3995L47.9794 54.4844L48.198 54.0347L48.4166 53.585L48.2418 53.5001L48.0232 53.9498ZM48.198 54.0347L47.9595 53.5953L47.7886 53.6881L48.0271 54.1275L48.2656 54.5669L48.4365 54.4742L48.198 54.0347ZM48.0271 54.1275L47.7879 53.6884C47.6088 53.786 47.14 53.978 46.7389 53.9781L46.739 54.4781L46.7391 54.9781C47.3776 54.978 48.0181 54.7018 48.2663 54.5666L48.0271 54.1275ZM46.739 54.4781V53.9781C46.1232 53.9781 43.7876 53.973 42.0118 53.3591L41.8484 53.8316L41.685 54.3042C43.6424 54.9808 46.1419 54.9781 46.739 54.9781V54.4781ZM41.8484 53.8316L41.3556 53.7472C41.3012 54.0644 41.3656 54.3769 41.4776 54.6582L41.9421 54.4732L42.4067 54.2883C42.337 54.1133 42.3279 53.9938 42.3412 53.9161L41.8484 53.8316ZM41.9421 54.4732L41.4777 54.6583C41.6089 54.9876 41.8186 55.3063 42.0424 55.5944L42.4373 55.2877L42.8321 54.981C42.6353 54.7275 42.4884 54.4934 42.4066 54.2881L41.9421 54.4732ZM42.4373 55.2877L42.0424 55.5944C42.4804 56.1582 43.0645 56.7108 43.3424 57.0135L43.7107 56.6754L44.079 56.3372C43.7203 55.9465 43.241 55.5073 42.8321 54.981L42.4373 55.2877ZM43.7107 56.6754L43.3424 57.0135C43.4949 57.1797 43.6416 57.3406 43.8612 57.487L44.1384 57.0709L44.4157 56.6548C44.31 56.5844 44.238 56.5104 44.079 56.3372L43.7107 56.6754ZM44.1384 57.0709L43.8614 57.4871C44.0796 57.6324 44.3518 57.7517 44.7536 57.8831L44.9089 57.4078L45.0643 56.9325C44.6979 56.8128 44.5241 56.7269 44.4155 56.6547L44.1384 57.0709ZM44.9089 57.4078L44.7536 57.8831C45.5481 58.1427 46.9655 58.4854 49.7454 59.1584L49.863 58.6724L49.9807 58.1865C47.1736 57.5069 45.8106 57.1764 45.0643 56.9325L44.9089 57.4078ZM49.863 58.6724L49.7431 59.1578L49.83 59.1793L49.95 58.6939L50.0699 58.2085L49.983 58.187L49.863 58.6724ZM49.95 58.6939L49.4536 58.6339L49.4428 58.7228L49.9392 58.7828L50.4356 58.8428L50.4463 58.7539L49.95 58.6939ZM49.9392 58.7828L49.4432 58.72C48.9526 62.5944 47.9352 64.9719 46.898 66.3696L47.2996 66.6676L47.7011 66.9655C48.8715 65.3882 49.9307 62.8302 50.4352 58.8456L49.9392 58.7828ZM47.2996 66.6676L46.8981 66.3696C45.9767 67.6111 45.05 68.0658 44.4602 68.1501L44.531 68.6451L44.6018 69.1401C45.5225 69.0084 46.6658 68.3604 47.7011 66.9655L47.2996 66.6676ZM44.531 68.6451L44.2307 69.0448C46.0409 70.4049 49.9058 74.3033 52.26 80.2015L52.7244 80.0162L53.1887 79.8308C50.7588 73.7429 46.7705 69.7022 44.8313 68.2453L44.531 68.6451ZM52.7244 80.0162L52.26 80.2015C53.4783 83.2541 54.0943 87.1213 54.3644 90.7341L54.863 90.6969L55.3616 90.6596C55.0885 87.0067 54.4624 83.022 53.1887 79.8308L52.7244 80.0162ZM54.863 90.6969L54.3644 90.7341C54.6258 94.2299 54.5592 97.4601 54.4151 99.4329L54.9138 99.4693L55.4125 99.5057C55.5599 97.4869 55.6269 94.2073 55.3616 90.6596L54.863 90.6969ZM54.9138 99.4693L55.1557 99.9069C58.5115 98.0524 60.3843 96.1878 61.5691 94.4239L61.1541 94.1451L60.739 93.8663C59.6551 95.48 57.9094 97.2426 54.672 99.0317L54.9138 99.4693ZM61.1541 94.1451L61.5691 94.4239C62.7549 92.6584 63.2577 90.9674 63.8487 89.6798L63.3943 89.4713L62.9399 89.2627C62.2759 90.7093 61.8673 92.1864 60.739 93.8663L61.1541 94.1451ZM63.3943 89.4713L63.8488 89.6797C63.9869 89.3786 64.0912 88.9659 64.1723 88.4899L63.6794 88.4058L63.1866 88.3218C63.11 88.7708 63.0231 89.0812 62.9398 89.2628L63.3943 89.4713ZM63.6794 88.4058L64.1723 88.4898C64.2545 88.0077 64.3171 87.4344 64.3637 86.7978L63.865 86.7613L63.3663 86.7249C63.3211 87.3432 63.2615 87.8822 63.1865 88.3218L63.6794 88.4058ZM63.865 86.7613L64.3637 86.7977C64.4568 85.5226 64.486 83.9685 64.4665 82.3296L63.9666 82.3355L63.4666 82.3415C63.4859 83.9647 63.4567 85.4883 63.3663 86.7249L63.865 86.7613ZM63.9666 82.3355L64.4665 82.3296C64.4276 79.0522 64.195 75.4044 63.8826 72.9092L63.3865 72.9713L62.8903 73.0334C63.1971 75.484 63.428 79.0935 63.4666 82.3415L63.9666 82.3355ZM63.3865 72.9713L63.8797 72.8891L63.8777 72.8773L63.3845 72.9595L62.8913 73.0417L62.8933 73.0535L63.3865 72.9713ZM63.3845 72.9595V73.4595H63.3855V72.9595V72.4595H63.3845V72.9595ZM63.3855 72.9595H63.8855V64.1754H63.3855H62.8855V72.9595H63.3855ZM63.3855 64.1754L63.8855 64.1754C63.8855 62.2141 64.1704 61.9583 64.4929 60.5581L64.0056 60.4459L63.5184 60.3337C63.2287 61.5913 62.8855 62.0625 62.8855 64.1754L63.3855 64.1754ZM64.0056 60.4459L64.5056 60.4497C64.5089 60.0212 64.7169 59.0732 65.3223 57.7541L64.8679 57.5455L64.4135 57.3369C63.7844 58.7075 63.5105 59.8067 63.5056 60.4421L64.0056 60.4459ZM64.8679 57.5455L65.3223 57.7541C65.9271 56.4365 66.9154 54.7769 68.4442 52.9449L68.0603 52.6246L67.6764 52.3042C66.0937 54.2008 65.057 55.9351 64.4135 57.3369L64.8679 57.5455ZM68.0603 52.6246L68.4442 52.945C69.945 51.1466 71.9067 49.9089 73.7135 48.9457L73.4783 48.5045L73.2431 48.0633C71.3988 49.0465 69.3014 50.3571 67.6764 52.3042L68.0603 52.6246ZM73.4783 48.5045L73.7135 48.9457C74.6231 48.4608 75.466 48.0587 76.2131 47.6761L75.9851 47.231L75.7572 46.786C75.0489 47.1488 74.1558 47.5767 73.2431 48.0632L73.4783 48.5045ZM75.9851 47.231L76.2131 47.676C76.8301 47.36 77.377 47.0571 77.7861 46.7519L77.4871 46.3512L77.188 45.9504C76.852 46.2012 76.3708 46.4717 75.7572 46.786L75.9851 47.231ZM61.9041 48.8785L61.8875 49.3782C61.9239 49.3794 61.951 49.3808 61.9713 49.3823C61.9923 49.3838 62.0002 49.3851 61.9997 49.385L62.0837 48.8922L62.1678 48.3993C62.0894 48.3859 62.0012 48.3814 61.9206 48.3788L61.9041 48.8785ZM62.0837 48.8922L61.999 49.3849C61.9989 49.3849 61.9978 49.3847 61.9958 49.3843C61.9938 49.3839 61.9908 49.3832 61.987 49.3822C61.9795 49.3802 61.9674 49.3766 61.9524 49.3704C61.9217 49.3575 61.8763 49.3324 61.8338 49.2863L62.2019 48.9478L62.57 48.6094C62.4203 48.4466 62.2342 48.4107 62.1685 48.3994L62.0837 48.8922ZM62.2019 48.9478L61.8334 49.2858C61.7891 49.2374 61.77 49.1901 61.7639 49.1738L62.2322 48.9986L62.7005 48.8235C62.6844 48.7803 62.6481 48.6946 62.5704 48.6099L62.2019 48.9478ZM62.2322 48.9986L61.7637 49.1733C61.7654 49.1778 61.7669 49.1817 61.7678 49.1841C61.7683 49.1853 61.7687 49.1864 61.7689 49.187C61.7691 49.1874 61.7692 49.1876 61.7692 49.1878C61.7693 49.1879 61.7693 49.1879 61.7693 49.188C61.7693 49.188 61.7693 49.188 61.7693 49.188C61.7693 49.188 61.7693 49.1879 61.7692 49.1877C61.7691 49.1875 61.769 49.1872 61.7689 49.1868C61.7686 49.186 61.768 49.1846 61.7673 49.1827C61.7667 49.1809 61.7657 49.1782 61.7645 49.1748C61.7634 49.1715 61.7619 49.1669 61.7602 49.1613L62.238 49.0142L62.7159 48.8671C62.7121 48.8547 62.7085 48.8448 62.7066 48.8394C62.7045 48.8336 62.7026 48.8288 62.7017 48.8265C62.7012 48.8253 62.7008 48.8241 62.7005 48.8235C62.7002 48.8227 62.7001 48.8224 62.7 48.8221C62.6998 48.8216 62.7001 48.8225 62.7007 48.824L62.2322 48.9986ZM62.238 49.0142L61.7601 49.1611C61.7595 49.1591 61.7589 49.1571 61.7596 49.1595C61.7598 49.1603 61.7607 49.1631 61.7616 49.1664C61.7627 49.1699 61.7642 49.1747 61.766 49.1803L62.241 49.024L62.7159 48.8677C62.7173 48.8719 62.7184 48.8754 62.719 48.8775C62.7196 48.8794 62.72 48.8807 62.7198 48.8801C62.7195 48.8793 62.718 48.8738 62.716 48.8674L62.238 49.0142ZM62.241 49.024L61.7661 49.1804C61.7601 49.1623 61.7744 49.2103 61.7952 49.2531C61.8201 49.3043 61.8513 49.3482 61.8856 49.3858L62.2546 49.0484L62.6237 48.7111C62.6481 48.7378 62.6736 48.7728 62.6946 48.816C62.7116 48.8509 62.724 48.8922 62.7159 48.8676L62.241 49.024ZM62.2546 49.0484L61.8863 49.3865C61.9999 49.5103 62.178 49.6002 62.4179 49.6873L62.5886 49.2174L62.7593 48.7474C62.6598 48.7112 62.6079 48.6861 62.5856 48.6739C62.5749 48.668 62.5744 48.667 62.5806 48.6715C62.5866 48.6758 62.6028 48.6883 62.623 48.7103L62.2546 49.0484ZM62.5886 49.2174L62.4188 49.6876L62.5594 49.7384L62.7292 49.2681L62.8991 48.7979L62.7584 48.7471L62.5886 49.2174ZM62.7292 49.2681L62.3597 48.9313L62.2591 49.0417L62.6287 49.3785L62.9982 49.7153L63.0988 49.605L62.7292 49.2681ZM62.6287 49.3785L62.2603 49.0404C62.0998 49.2152 62.0485 49.2689 61.9706 49.3255L62.2644 49.7301L62.5582 50.1346C62.7319 50.0085 62.8508 49.8759 62.997 49.7166L62.6287 49.3785ZM62.2644 49.7301L61.9708 49.3253C61.8808 49.3906 61.7538 49.4607 61.4325 49.6357L61.6716 50.0748L61.9108 50.5139C62.203 50.3547 62.4023 50.2477 62.558 50.1348L62.2644 49.7301ZM61.6716 50.0748L61.4328 49.6355C61.2497 49.7351 60.9465 49.8121 60.6061 49.8612L60.6775 50.356L60.7489 50.8509C61.1155 50.798 61.5651 50.7019 61.9105 50.5141L61.6716 50.0748ZM60.6775 50.356L60.6062 49.8611C60.2758 49.9087 59.9532 49.9244 59.7634 49.9244V50.4244V50.9244C59.9955 50.9244 60.3661 50.9061 60.7488 50.8509L60.6775 50.356ZM59.7634 50.4244V49.9244H59.6638V50.4244V50.9244H59.7634V50.4244ZM59.6638 50.4244H60.1638V50.3248H59.6638H59.1638V50.4244H59.6638ZM59.6638 50.3248H60.1638C60.1638 50.3416 60.1606 50.3404 60.1689 50.3166C60.1769 50.294 60.1917 50.2617 60.2158 50.2204L59.7839 49.9683L59.3521 49.7163C59.2665 49.8631 59.1638 50.0808 59.1638 50.3248H59.6638ZM59.7839 49.9683L60.2157 50.2205C60.265 50.136 60.3432 50.032 60.4463 49.9197L60.0779 49.5816L59.7095 49.2436C59.5736 49.3916 59.4475 49.553 59.3522 49.7161L59.7839 49.9683ZM60.0779 49.5816L60.4462 49.9197C60.6533 49.6941 60.9292 49.4693 61.1951 49.3244L60.9558 48.8853L60.7165 48.4463C60.3409 48.651 59.9802 48.9487 59.7095 49.2435L60.0779 49.5816ZM60.9558 48.8853L61.1871 49.3286L61.2096 49.3169L60.9783 48.8736L60.747 48.4303L60.7245 48.442L60.9558 48.8853ZM60.9783 48.8736V49.3736H61.0037V48.8736V48.3736H60.9783V48.8736ZM61.0037 48.8736V49.3736C61.4736 49.3736 61.7362 49.3732 61.8876 49.3782L61.9041 48.8785L61.9205 48.3788C61.7477 48.3731 61.4611 48.3736 61.0037 48.3736V48.8736ZM61.032 49.0728L60.7886 48.636C60.4451 48.8274 60.1096 49.1021 59.856 49.3783L60.2244 49.7164L60.5927 50.0545C60.7811 49.8493 61.0339 49.6441 61.2753 49.5096L61.032 49.0728ZM60.2244 49.7164L59.856 49.3783C59.7253 49.5207 59.6103 49.6708 59.5251 49.8167L59.9568 50.0689L60.3885 50.3212C60.4296 50.2508 60.498 50.1577 60.5928 50.0544L60.2244 49.7164ZM59.9568 50.0689L59.525 49.8169C59.4816 49.8912 59.4412 49.9719 59.4122 50.0551L59.8845 50.2193L60.3568 50.3835C60.357 50.3828 60.3592 50.3769 60.3647 50.3655C60.3701 50.3542 60.3778 50.3394 60.3886 50.321L59.9568 50.0689ZM59.8845 50.2193L59.8977 50.7191C60.1112 50.7135 60.4097 50.6973 60.7195 50.6527L60.6482 50.1578L60.5769 49.6629C60.3189 49.7001 60.0621 49.7145 59.8713 49.7195L59.8845 50.2193ZM60.6482 50.1578L60.7195 50.6527C61.0807 50.6006 61.5015 50.5085 61.8147 50.3383L61.5759 49.899L61.3371 49.4597C61.1867 49.5415 60.9127 49.6145 60.5768 49.6629L60.6482 50.1578ZM61.5759 49.899L61.8151 50.3381C62.1126 50.176 62.2982 50.0761 62.4409 49.9726L62.1472 49.5679L61.8536 49.1633C61.7769 49.2189 61.6645 49.2814 61.3368 49.4599L61.5759 49.899ZM62.1472 49.5679L62.4411 49.9725C62.5644 49.8829 62.6518 49.7913 62.7459 49.6906L62.3806 49.3492L62.0154 49.0078C61.9232 49.1063 61.8922 49.1352 61.8533 49.1634L62.1472 49.5679ZM62.3806 49.3492L62.5769 48.8893C62.5203 48.8652 62.4881 48.8477 62.4715 48.8375C62.4552 48.8273 62.4616 48.8288 62.4764 48.8449L62.1082 49.1832L61.7399 49.5214C61.8595 49.6516 62.0191 49.7385 62.1844 49.8091L62.3806 49.3492ZM62.1082 49.1832L62.4766 48.8452C62.4855 48.8549 62.4957 48.8682 62.5052 48.8849C62.5148 48.9017 62.5211 48.9172 62.525 48.9287L62.0515 49.0894L61.578 49.2501C61.6056 49.3312 61.6532 49.4269 61.7397 49.5212L62.1082 49.1832ZM62.0515 49.0894V48.5894H62.0496V49.0894V49.5894H62.0515V49.0894ZM62.0496 49.0894L62.1328 48.5964C62.0687 48.5856 61.9918 48.5815 61.9137 48.579L61.8972 49.0787L61.8807 49.5784C61.9164 49.5796 61.9407 49.5809 61.9568 49.582C61.9744 49.5833 61.9751 49.5839 61.9664 49.5825L62.0496 49.0894ZM61.8972 49.0787L61.9137 48.579C61.7487 48.5735 61.4768 48.5728 61.032 48.5728L61.032 49.0728L61.032 49.5728C61.4844 49.5728 61.7364 49.5737 61.8808 49.5784L61.8972 49.0787Z" fill="#B3835B"/>
<path d="M14.1753 11.8108C14.4234 8.2973 16.1394 3.13964 16.9664 1C13.2449 2.01351 10.1436 7.75676 7.04238 15.1892C5.49175 22.6216 6.42213 23.973 7.04238 34.4459C5.30567 33.6351 4.45799 24.8739 4.25124 20.5946C4.04449 20.7072 3.44491 22.0811 2.70061 26.6757C1.77023 32.4189 2.39048 33.0946 2.70061 37.1487C3.01074 41.2027 5.18162 44.2432 7.66263 48.2973C10.1436 52.3514 21.9284 63.5 25.0297 66.2027C28.4411 68.5676 38.055 79.7162 43.6372 86.1351C47.6689 92.2162 48.9094 95.2568 51.7005 101C52.3208 97.9595 52.3208 96.9459 52.3208 88.8378C51.0803 80.7297 44.5676 72.9595 43.3271 71.6081C42.3347 70.527 34.0233 61.6982 29.9917 57.4189C27.6141 54.9414 22.3626 49.1757 20.3778 45.9324C17.8968 41.8784 16.3462 38.1622 14.7955 33.4324C12.3145 23.6351 13.555 19.2432 14.1753 11.8108Z" fill="#5C624A" stroke="black"/>
<path d="M41.4665 86.8108C45.188 91.9459 46.1184 95.2568 46.1184 96.2703C41.1564 89.5135 40.8462 90.1892 36.1943 85.7973C31.2323 81.7432 24.4095 77.0135 19.4475 73.2973C14.4855 69.5811 9.5235 64.1757 6.42224 61.1351C3.32099 58.0946 1.77036 53.027 1.46023 52.0135C0.529856 49.3108 1.15011 44.5811 2.08049 42.2162C2.08049 43.9054 3.01086 45.5946 3.94124 48.2973C5.18174 53.027 10.764 57.0811 15.1058 61.1351C17.8969 63.1622 29.3716 73.6351 30.6121 74.6487C31.8526 75.6622 36.8146 80.3919 41.4665 86.8108Z" fill="#5C624A" stroke="black"/>
</svg>
